<?xml version="1.0" encoding="UTF-8"?>
<svg width="256" height="256" viewBox="0 0 256 256" xmlns="http://www.w3.org/2000/svg">
  <!-- Background circle -->
  <circle cx="128" cy="128" r="120" fill="#2E3440" stroke="#5E81AC" stroke-width="8"/>
  
  <!-- ComfyUI nodes representation -->
  <g fill="#88C0D0" stroke="#5E81AC" stroke-width="2">
    <!-- Input node -->
    <rect x="40" y="100" width="40" height="30" rx="6" fill="#A3BE8C"/>
    <text x="60" y="118" text-anchor="middle" font-family="sans-serif" font-size="8" fill="#2E3440">IN</text>
    
    <!-- Processing nodes -->
    <rect x="110" y="80" width="40" height="30" rx="6" fill="#D08770"/>
    <text x="130" y="98" text-anchor="middle" font-family="sans-serif" font-size="7" fill="#2E3440">GEN</text>
    
    <rect x="110" y="140" width="40" height="30" rx="6" fill="#B48EAD"/>
    <text x="130" y="158" text-anchor="middle" font-family="sans-serif" font-size="7" fill="#2E3440">FX</text>
    
    <!-- Output node -->
    <rect x="180" y="110" width="40" height="30" rx="6" fill="#EBCB8B"/>
    <text x="200" y="128" text-anchor="middle" font-family="sans-serif" font-size="8" fill="#2E3440">OUT</text>
  </g>
  
  <!-- Connection lines -->
  <g stroke="#81A1C1" stroke-width="3" fill="none">
    <path d="M 80 115 Q 95 115 110 95"/>
    <path d="M 80 115 Q 95 115 110 155"/>
    <path d="M 150 95 Q 165 95 180 125"/>
    <path d="M 150 155 Q 165 155 180 125"/>
  </g>
  
  <!-- Connection dots -->
  <g fill="#ECEFF4">
    <circle cx="80" cy="115" r="3"/>
    <circle cx="110" cy="95" r="3"/>
    <circle cx="110" cy="155" r="3"/>
    <circle cx="150" cy="95" r="3"/>
    <circle cx="150" cy="155" r="3"/>
    <circle cx="180" cy="125" r="3"/>
  </g>
  
  <!-- ComfyUI text -->
  <text x="128" y="200" text-anchor="middle" font-family="sans-serif" font-size="18" font-weight="bold" fill="#ECEFF4">ComfyUI</text>
  <text x="128" y="220" text-anchor="middle" font-family="sans-serif" font-size="10" fill="#81A1C1">AppImage</text>
</svg>